<?xml version="1.0" encoding="utf-8"?>
<!-- Generator: Adobe Illustrator 21.1.0, SVG Export Plug-In . SVG Version: 6.00 Build 0)  -->
<svg version="1.1" id="Слой_1" xmlns="http://www.w3.org/2000/svg" xmlns:xlink="http://www.w3.org/1999/xlink" x="0px" y="0px"
	 viewBox="0 0 58.8 27.9" style="enable-background:new 0 0 58.8 27.9;" xml:space="preserve">
<style type="text/css">
	.st0{opacity:0.4;}
	.st1{fill:#FFFFFF;stroke:#2C3E50;stroke-width:2;stroke-linecap:round;stroke-linejoin:round;stroke-miterlimit:10;}
	.st2{fill:#2C3E50;}
</style>
<g class="st0">
	<path class="st1" d="M11.1,27.9"/>
	<g>
		<path class="st2" d="M0,20C17.2,12.3,36,8.1,55,8c0.6,0,1,0.4,1,1s-0.4,1-1,1c0,0,0,0,0,0C36.3,9.5,17.4,12.9,0,20z"/>
	</g>
	<g>
		<path class="st2" d="M47.1,19.9c2.6-4.4,5.8-8.4,9.6-11.9l0,0l0,2L45.6,0l12.6,7.9C58.8,8.2,59,9,58.6,9.5
			c-0.1,0.1-0.2,0.2-0.3,0.3l-0.1,0.1l0,0c-4.1,2.8-7.8,6.1-11.1,10C47.2,20,47.1,20,47.1,19.9C47.1,19.9,47.1,19.9,47.1,19.9z"/>
	</g>
</g>
</svg>
