<?xml version="1.0" encoding="utf-8"?>
<!-- Generator: Adobe Illustrator 21.1.0, SVG Export Plug-In . SVG Version: 6.00 Build 0)  -->
<svg version="1.1" id="Слой_1" xmlns="http://www.w3.org/2000/svg" xmlns:xlink="http://www.w3.org/1999/xlink" x="0px" y="0px"
	 viewBox="0 0 130 74" style="enable-background:new 0 0 130 74;" xml:space="preserve">
<style type="text/css">
	.st0{fill:#95A5A6;stroke:#2C3E50;stroke-width:2;stroke-linecap:round;stroke-linejoin:round;stroke-miterlimit:10;}
	.st1{fill:#FFFFFF;stroke:#2C3E50;stroke-width:2;stroke-linejoin:round;stroke-miterlimit:10;}
	.st2{fill:none;stroke:#2C3E50;stroke-width:2;stroke-linecap:round;stroke-linejoin:round;stroke-miterlimit:10;}
	.st3{fill:none;stroke:#2C3E50;stroke-width:2;stroke-linejoin:round;stroke-miterlimit:10;}
</style>
<g>
	<path class="st0" d="M61.3,54.2C58.6,49.1,57,43.2,57,37C57,17.1,73.1,1,93,1s36,16.1,36,36s-16.1,36-36,36c-9.4,0-18-3.6-24.5-9.6
		"/>
	<g>
		<path class="st1" d="M63,55H50c-2.6,0-4.5-2.4-4-4.9l6.3-29.8c0.4-1.9,2.1-3.3,4-3.3H110c2.6,0,4.5,2.4,4,4.9l-6.3,29.8
			c-0.4,1.9-2.1,3.3-4,3.3H69"/>
		<g>
			<line class="st2" x1="23" y1="25" x2="41" y2="25"/>
			<line class="st2" x1="1" y1="35" x2="37" y2="35"/>
			<line class="st2" x1="11" y1="45" x2="29" y2="45"/>
		</g>
		<path class="st3" d="M54,18l21.3,15.8c1,0.8,2.4,0.9,3.6,0.4L113,19"/>
		<line class="st3" x1="75" y1="34" x2="47" y2="53"/>
		<line class="st2" x1="91" y1="43" x2="104" y2="54"/>
		<line class="st2" x1="81" y1="34" x2="88" y2="40"/>
	</g>
</g>
</svg>
