<?xml version="1.0" encoding="utf-8"?>
<!-- Generator: Adobe Illustrator 21.1.0, SVG Export Plug-In . SVG Version: 6.00 Build 0)  -->
<svg version="1.1" id="Слой_1" xmlns="http://www.w3.org/2000/svg" xmlns:xlink="http://www.w3.org/1999/xlink" x="0px" y="0px"
	 viewBox="0 0 126 96.3" style="enable-background:new 0 0 126 96.3;" xml:space="preserve">
<style type="text/css">
	.st0{fill:#FFFFFF;stroke:#2C3E50;stroke-width:2;stroke-linejoin:round;stroke-miterlimit:10;}
	.st1{fill:#2C3E50;stroke:#2C3E50;stroke-width:2;stroke-linejoin:round;stroke-miterlimit:10;}
	.st2{fill:#16A085;stroke:#2C3E50;stroke-width:2;stroke-linecap:round;stroke-linejoin:round;stroke-miterlimit:10;}
	.st3{fill:#F39C12;stroke:#2C3E50;stroke-width:2;stroke-linecap:round;stroke-linejoin:round;stroke-miterlimit:10;}
	.st4{fill:#F39C12;stroke:#F39C12;stroke-width:2;stroke-linecap:round;stroke-linejoin:round;stroke-miterlimit:10;}
	.st5{fill:#FFFFFF;stroke:#2C3E50;stroke-width:2;stroke-linecap:round;stroke-linejoin:round;stroke-miterlimit:10;}
	.st6{fill:none;stroke:#2C3E50;stroke-width:2;stroke-linecap:round;stroke-linejoin:round;stroke-miterlimit:10;}
</style>
<g>
	<g>
		<g>
			<path class="st0" d="M1,63.9V8.6C1,4.4,4.4,1,8.6,1h94.3c4.2,0,7.6,3.4,7.6,7.6v55.3c0,4.2-3.4,7.6-7.6,7.6H8.6
				C4.4,71.5,1,68.1,1,63.9z"/>
			
				<rect x="49" y="-2.8" transform="matrix(-1.836970e-16 1 -1 -1.836970e-16 107.7005 -3.7995)" class="st1" width="13.4" height="109.5"/>
		</g>
		<path class="st2" d="M123.4,9.7c-1.5-1.4-3.8-1.5-5.4-0.2L80.4,40.9L55.3,25.7c-1.7-1-3.8-0.7-5.1,0.7c-1.3,1.4-1.5,3.6-0.3,5.2
			L77,70.5c0.8,1.1,2,1.8,3.3,1.8h0c1.3,0,2.5-0.6,3.3-1.7l40.3-55.4C125.2,13.5,124.9,11.1,123.4,9.7L123.4,9.7z M123.4,9.7"/>
		<g>
			<g>
				<g>
					<path class="st3" d="M42.3,77.6c4-4.9,14.2-8.5,26.2-8.5c15.5,0,28,5.9,28,13.1S84,95.3,68.5,95.3s-28-5.9-28-13.1
						c0-0.3,0-0.6,0.1-0.9"/>
					<polyline class="st3" points="40.5,82.4 40.5,77.2 96.6,77.2 96.6,82.4 					"/>
					<path class="st4" d="M72.5,76.9"/>
					<path class="st4" d="M68.5,81.5"/>
				</g>
				<g>
					<path class="st3" d="M42.3,72.3c4-4.9,14.2-8.5,26.2-8.5c15.5,0,28,5.9,28,13.1S84,90,68.5,90s-28-5.9-28-13.1
						c0-0.3,0-0.6,0.1-0.9"/>
					<path class="st5" d="M83.1,82.3c-3.6,1.9-8.8,3.1-14.6,3.1c-10.8,0-19.5-4.1-19.5-9.1s8.7-9.1,19.5-9.1S88,71.3,88,76.3
						c0,1.2-0.5,2.3-1.4,3.4"/>
					<path class="st4" d="M72.5,71.7"/>
					<path class="st4" d="M68.5,76.3"/>
				</g>
			</g>
			<g>
				<g>
					<path class="st3" d="M74.1,55.6c5.6-3,16.4-2.4,27.5,2.2c14.3,5.9,23.7,16.1,20.9,22.8c-2.8,6.7-16.6,7.3-30.9,1.4
						S67.9,65.8,70.7,59.2c0.1-0.3,0.3-0.6,0.4-0.8"/>
					<polyline class="st3" points="70.6,59.4 72.6,54.5 124.4,75.9 122.4,80.8 					"/>
					<path class="st4" d="M102.3,66.5"/>
					<path class="st4" d="M96.8,69.3"/>
				</g>
				<g>
					<path class="st3" d="M76.1,50.7c5.6-3,16.4-2.4,27.5,2.2c14.3,5.9,23.7,16.1,20.9,22.8c-2.8,6.7-16.6,7.3-30.9,1.4
						S69.9,61,72.7,54.3c0.1-0.3,0.3-0.6,0.4-0.8"/>
					<path class="st5" d="M110,75.6c-4,0.4-9.3-0.5-14.7-2.7C85.4,68.7,78.9,61.6,80.8,57s11.5-5.1,21.5-1s16.5,11.2,14.5,15.8
						c-0.5,1.1-1.3,2-2.6,2.6"/>
					<path class="st4" d="M104.3,61.6"/>
					<path class="st4" d="M98.8,64.4"/>
				</g>
			</g>
		</g>
	</g>
	<line class="st6" x1="17.2" y1="7.9" x2="49.1" y2="7.9"/>
	<line class="st6" x1="54.7" y1="7.9" x2="65.4" y2="7.9"/>
</g>
</svg>
