<?xml version="1.0" encoding="utf-8"?>
<!-- Generator: Adobe Illustrator 21.1.0, SVG Export Plug-In . SVG Version: 6.00 Build 0)  -->
<svg version="1.1" id="Слой_1" xmlns="http://www.w3.org/2000/svg" xmlns:xlink="http://www.w3.org/1999/xlink" x="0px" y="0px"
	 viewBox="0 0 108 108" style="enable-background:new 0 0 108 108;" xml:space="preserve">
<style type="text/css">
	.st0{fill:#2C3E50;}
	.st1{fill:#F9B01C;}
	.st2{fill:#6EC9B5;}
	.st3{fill:#4CC4E6;}
	.st4{fill:#E6622C;}
	.st5{fill:#8BC446;}
</style>
<g>
	<path class="st0" d="M88,0H20C9,0,0,9,0,20v68c0,11,9,20,20,20h68c11,0,20-9,20-20V20C108,9,99,0,88,0z"/>
	<g>
		<path class="st1" d="M65.7,68.9c-1.9,0-3.9,0-5.9,0c-0.8,0-1-0.7-1.3-1.2c-1.9-3.5-3.8-7-5.9-10.8c-1.5,2-3.1,3.8-4.2,5.7
			c-0.8,1.4-0.3,3.1-0.3,4.7c0,1.3-0.4,1.6-1.6,1.6C42,69,42,69,42,64.6c0-7.9,0-15.9,0-23.8c0-1.3,0.3-1.7,1.7-1.7
			c4.4,0,4.4,0,4.4,4.4c0,3.3,0,6.5,0,9.8c0.1,0,0.3,0.1,0.4,0.1c1.9-2.5,3.8-5,5.7-7.5c1.3-1.7,2.7-3.4,3.9-5.2
			c0.8-1.2,1.8-1.7,3.2-1.6c1.4,0.1,2.9,0,4.8,0c-1.1,1.5-2.1,2.8-3,4c-1.8,2.4-3.5,4.8-5.4,7.1c-0.9,1.1-0.8,1.9-0.2,3
			c2.6,4.6,5.2,9.3,7.7,14C65.4,67.7,65.8,68.1,65.7,68.9z"/>
		<g>
			<path class="st2" d="M22.1,84.6V59.2c0-0.6-0.5-1-1-1h-2.6c-0.6,0-1,0.5-1,1v26.4v3.6c0,0.6,0.5,1,1,1h3.6h26.7c0.6,0,1-0.5,1-1
				v-2.5c0-0.6-0.5-1-1-1H23.1C22.5,85.6,22.1,85.2,22.1,84.6z"/>
			<path class="st3" d="M85.9,84.6V59.2c0-0.6,0.5-1,1-1h2.6c0.6,0,1,0.5,1,1v26.4v3.6c0,0.6-0.5,1-1,1h-3.6H59.3c-0.6,0-1-0.5-1-1
				v-2.5c0-0.6,0.5-1,1-1h25.6C85.5,85.6,85.9,85.2,85.9,84.6z"/>
			<path class="st4" d="M22.1,23.4v25.4c0,0.6-0.5,1-1,1h-2.6c-0.6,0-1-0.5-1-1V22.4v-3.6c0-0.6,0.5-1,1-1h3.6h26.7c0.6,0,1,0.5,1,1
				v2.5c0,0.6-0.5,1-1,1H23.1C22.5,22.4,22.1,22.8,22.1,23.4z"/>
			<path class="st5" d="M85.9,23.4v25.4c0,0.6,0.5,1,1,1h2.6c0.6,0,1-0.5,1-1V22.4v-3.6c0-0.6-0.5-1-1-1h-3.6H59.3c-0.6,0-1,0.5-1,1
				v2.5c0,0.6,0.5,1,1,1h25.6C85.5,22.4,85.9,22.8,85.9,23.4z"/>
		</g>
	</g>
</g>
</svg>
