<?xml version="1.0" encoding="utf-8"?>
<!-- Generator: Adobe Illustrator 21.1.0, SVG Export Plug-In . SVG Version: 6.00 Build 0)  -->
<svg version="1.1" id="Слой_1" xmlns="http://www.w3.org/2000/svg" xmlns:xlink="http://www.w3.org/1999/xlink" x="0px" y="0px"
	 viewBox="0 0 105 101.3" style="enable-background:new 0 0 105 101.3;" xml:space="preserve">
<style type="text/css">
	.st0{fill:#16A085;stroke:#2C3E50;stroke-width:2;stroke-linecap:round;stroke-linejoin:round;stroke-miterlimit:10;}
	.st1{fill:#FFFFFF;stroke:#2C3E50;stroke-width:2;stroke-linejoin:round;stroke-miterlimit:10;}
	.st2{fill:none;stroke:#2C3E50;stroke-width:2;stroke-linecap:round;stroke-linejoin:round;stroke-miterlimit:10;}
	.st3{fill:#F39C12;stroke:#2C3E50;stroke-width:2;stroke-linecap:round;stroke-linejoin:round;stroke-miterlimit:10;}
	.st4{fill:#FFFFFF;stroke:#2C3E50;stroke-width:2;stroke-linecap:round;stroke-linejoin:round;stroke-miterlimit:10;}
</style>
<g>
	<path class="st0" d="M70,15.5H4.7c-2.1,0-3.7-1.7-3.7-3.7v0.1c0-2.1,1.7-3.7,3.7-3.7h95.5c2.1,0,3.7,1.7,3.7,3.7v-0.1
		c0,2.1-1.7,3.7-3.7,3.7H75"/>
	<circle class="st1" cx="21.9" cy="11.8" r="10.8"/>
	<path class="st1" d="M100.2,40.1H4.7c-2.1,0-3.7-1.7-3.7-3.7v0.1c0-2.1,1.7-3.7,3.7-3.7h95.5c2.1,0,3.7,1.7,3.7,3.7v-0.1
		C104,38.5,102.3,40.1,100.2,40.1z"/>
	<path class="st0" d="M100.2,68.5H4.7c-2.1,0-3.7-1.7-3.7-3.7v0.1c0-2.1,1.7-3.7,3.7-3.7h95.5c2.1,0,3.7,1.7,3.7,3.7v-0.1
		C104,66.8,102.3,68.5,100.2,68.5z"/>
	<g>
		<path class="st2" d="M86.7,57.7"/>
		<path class="st2" d="M82.4,53.3"/>
		<g>
			<g>
				<g>
					<path class="st3" d="M19.3,15l11.2,16.7l-1.1,0.8c-1.9,1.3-2.4,3.8-1.1,5.7l4.9,7.3c1.7,2.5,4.2,4.4,7,5.3l6.4,2.1
						c1.1,0.4,2.1,1.1,2.8,2.1l4.5,6.8l20.7-14.5c0,0-4.9-6.9-5.7-9.6c-1.4-5.5-3.8-9.6-6.9-14.3l-1.3-1.9c-1.7-2.6-4.5-3.5-6.5-1.2
						c-0.9,1-1.2,1.2-0.3,2.5l-1.4-2.1c-1.1-1.7-3.3-2.5-5.1-1.6c-2.4,1.1-3.2,3.9-1.8,6l-1.5-2.3c-1.2-1.8-3.8-2.5-5.6-1.4
						c-2,1.2-2.6,3.8-1.3,5.8L25.9,10.3c-1.3-1.9-3.9-2.4-5.8-1C18.3,10.6,18.1,13.2,19.3,15L19.3,15z"/>
					<line class="st3" x1="27.3" y1="26.9" x2="33" y2="35.2"/>
				</g>
				<g>
					<path class="st3" d="M27.3,26.9"/>
				</g>
				<path class="st4" d="M72.8,43.9c0.6-0.4,1.5-0.3,1.9,0.4l8.6,11.4c0.4,0.6,0.3,1.5-0.4,1.9L60.3,72.3c-0.6,0.4-1.5,0.3-1.9-0.4
					l-7.7-12.3c-0.4-0.6-0.3-1.5,0.4-1.9L72.8,43.9z"/>
			</g>
			<path class="st4" d="M96,100.3c0-12-2-26-13.8-42.1L61,72.1c9,12.2,3,28.2,3,28.2"/>
		</g>
	</g>
	<g>
		<path class="st4" d="M23,55c0.6-0.1,1.3-0.2,2-0.2c5.5,0,10,4.5,10,10s-4.5,10-10,10s-10-4.5-10-10c0-2.8,1.2-5.4,3.1-7.2"/>
	</g>
	<g>
		<circle class="st1" cx="86.9" cy="36.8" r="9.1"/>
	</g>
</g>
</svg>
