<?xml version="1.0" encoding="utf-8"?>
<!-- Generator: Adobe Illustrator 21.1.0, SVG Export Plug-In . SVG Version: 6.00 Build 0)  -->
<svg version="1.1" id="Слой_1" xmlns="http://www.w3.org/2000/svg" xmlns:xlink="http://www.w3.org/1999/xlink" x="0px" y="0px"
	 viewBox="0 0 125.4 148.3" style="enable-background:new 0 0 125.4 148.3;" xml:space="preserve">
<style type="text/css">
	.st0{fill:none;stroke:#2C3E50;stroke-width:2;stroke-linecap:round;stroke-linejoin:round;stroke-miterlimit:10;}
	.st1{fill:#F39C12;stroke:#2C3E50;stroke-width:2;stroke-linecap:round;stroke-linejoin:round;stroke-miterlimit:10;}
	.st2{fill:#FFFFFF;stroke:#2C3E50;stroke-width:2;stroke-linecap:round;stroke-linejoin:round;stroke-miterlimit:10;}
	.st3{fill:none;stroke:url(#SVGID_1_);stroke-width:2;stroke-linecap:round;stroke-linejoin:round;stroke-miterlimit:10;}
	.st4{fill:none;stroke:url(#SVGID_2_);stroke-width:2;stroke-linecap:round;stroke-linejoin:round;stroke-miterlimit:10;}
</style>
<g>
	<path class="st0" d="M109.6,79.4"/>
	<path class="st0" d="M102.7,72.4"/>
	<g>
		<g>
			<g>
				<path class="st1" d="M2.2,11.4L20.1,38l-1.8,1.2c-3,2-3.8,6-1.8,9l7.8,11.6c2.7,4,6.6,7,11.2,8.5l10.2,3.4
					c1.8,0.6,3.4,1.8,4.5,3.4l7.2,10.8l33-23.1c0,0-7.9-11-9-15.4c-2.3-8.7-6-15.3-11-22.8l-2.1-3.1c-2.7-4.1-7.1-5.5-10.4-1.8
					c-1.5,1.7-1.9,1.9-0.5,4l-2.2-3.3c-1.8-2.7-5.2-3.9-8.1-2.6c-3.8,1.7-5,6.3-2.8,9.6l-2.4-3.6c-1.9-2.8-6-4-8.9-2.3
					c-3.2,1.9-4.1,6.1-2.1,9.2L12.8,3.9c-2.1-3.1-6.3-3.8-9.3-1.6C0.7,4.4,0.2,8.5,2.2,11.4L2.2,11.4z"/>
				<line class="st1" x1="14.9" y1="30.3" x2="24.1" y2="43.5"/>
			</g>
			<g>
				<path class="st1" d="M14.9,30.3"/>
			</g>
			<path class="st2" d="M87.4,57.4c1-0.7,2.3-0.4,3,0.6l13.7,18.1c0.7,1,0.4,2.3-0.6,3l-36,23.6c-1,0.7-2.3,0.4-3-0.6L52.3,82.5
				c-0.7-1-0.4-2.3,0.6-3L87.4,57.4z"/>
		</g>
		<line class="st2" x1="102.5" y1="80.3" x2="68.6" y2="102.3"/>
		<linearGradient id="SVGID_1_" gradientUnits="userSpaceOnUse" x1="67.6012" y1="124.8018" x2="77.5358" y2="124.8018">
			<stop  offset="0" style="stop-color:#2C3E50"/>
			<stop  offset="2.627605e-02" style="stop-color:#3B4C5D;stop-opacity:0.9737"/>
			<stop  offset="0.1133" style="stop-color:#697682;stop-opacity:0.8867"/>
			<stop  offset="0.2061" style="stop-color:#919BA4;stop-opacity:0.7939"/>
			<stop  offset="0.3035" style="stop-color:#B3BAC0;stop-opacity:0.6965"/>
			<stop  offset="0.4067" style="stop-color:#CFD3D7;stop-opacity:0.5933"/>
			<stop  offset="0.5179" style="stop-color:#E4E7E9;stop-opacity:0.4821"/>
			<stop  offset="0.6408" style="stop-color:#F3F4F5;stop-opacity:0.3592"/>
			<stop  offset="0.7845" style="stop-color:#FCFDFD;stop-opacity:0.2155"/>
			<stop  offset="1" style="stop-color:#FFFFFF;stop-opacity:0"/>
		</linearGradient>
		<path class="st3" d="M68.6,102.3c14.4,19.5,4.8,45,4.8,45"/>
		<linearGradient id="SVGID_2_" gradientUnits="userSpaceOnUse" x1="101.4711" y1="113.7847" x2="125.3884" y2="113.7847">
			<stop  offset="0" style="stop-color:#2C3E50"/>
			<stop  offset="2.627605e-02" style="stop-color:#3B4C5D;stop-opacity:0.9737"/>
			<stop  offset="0.1133" style="stop-color:#697682;stop-opacity:0.8867"/>
			<stop  offset="0.2061" style="stop-color:#919BA4;stop-opacity:0.7939"/>
			<stop  offset="0.3035" style="stop-color:#B3BAC0;stop-opacity:0.6965"/>
			<stop  offset="0.4067" style="stop-color:#CFD3D7;stop-opacity:0.5933"/>
			<stop  offset="0.5179" style="stop-color:#E4E7E9;stop-opacity:0.4821"/>
			<stop  offset="0.6408" style="stop-color:#F3F4F5;stop-opacity:0.3592"/>
			<stop  offset="0.7845" style="stop-color:#FCFDFD;stop-opacity:0.2155"/>
			<stop  offset="1" style="stop-color:#FFFFFF;stop-opacity:0"/>
		</linearGradient>
		<path class="st4" d="M124.4,147.3c0-19.1-3.2-41.4-21.9-67"/>
	</g>
</g>
</svg>
