<?xml version="1.0" encoding="utf-8"?>
<!-- Generator: Adobe Illustrator 21.1.0, SVG Export Plug-In . SVG Version: 6.00 Build 0)  -->
<svg version="1.1" id="Слой_1" xmlns="http://www.w3.org/2000/svg" xmlns:xlink="http://www.w3.org/1999/xlink" x="0px" y="0px"
	 viewBox="0 0 203.7 64" style="enable-background:new 0 0 203.7 64;" xml:space="preserve">
<style type="text/css">
	.st0{fill:#2C3E50;}
	.st1{fill:#F9B01C;}
	.st2{fill:#6EC9B5;}
	.st3{fill:#4CC4E6;}
	.st4{fill:#E6622C;}
	.st5{fill:#8BC446;}
</style>
<g>
	<g>
		<path class="st0" d="M96.6,42.4c-1.2-2.8-2.8-5.3-4.2-8c-0.4-0.7-0.7-0.5-1.1,0c-1.4,1.9-3.2,3.6-2.6,6.4c0.2,1-0.3,1.3-1.3,1.3
			c-2.9,0-2.9,0.1-2.9-2.9c0-5.6,0-11.2,0-16.8c0-1.2,0.3-1.6,1.6-1.6c2.8,0.1,2.8,0,2.8,2.8c0,2.4,0,4.8,0,7.4
			c0.9-0.6,1.3-1.3,1.8-2c1.6-2.1,3.3-4.3,4.8-6.5c0.9-1.3,1.9-1.7,3.4-1.7c0.8,0,1.6,0,2.7,0c-1.6,2.1-3.2,4.4-4.5,5.9
			c-1.8,2.2-2.2,4.1-0.5,6.5c1.6,2.4,2.8,5.1,4.2,7.6c0.3,0.5,0.7,0.9,0.2,1.5C99.5,42.4,98.1,42.4,96.6,42.4z"/>
		<path class="st0" d="M197.3,42.4c-0.3,0-0.4-2-0.3-3c0.1-1.2-0.4-1.5-1.5-1.5c-3.6,0-4.9,0-7.7,0c-1.1,0-1.4-0.4-1.2-1.4
			c0.7-4.9,1.4-9.9,2-14.8c0.1-0.7,0.4-0.9,1.1-0.9c3.3-0.2,3.3-0.3,2.9,3c-0.4,2.8-0.7,5.6-1.2,8.3c-0.2,1.2,0.1,1.5,1.3,1.5
			c4.3,0,4.3,0,4.3-4.3c0-1.7,0-3.5,0-5.2c0-0.9,0.3-1.1,1.1-1.2c3.2-0.1,3.2-0.2,3.2,3c0,2.2,0,4.4,0,6.6c0,0.6-0.1,1.1,0.8,1.1
			c1.6,0,1.6,1.1,1.6,2c0,1.1,0,2.2-1.1,2.2c-1.2,0-1.3,0.6-1.3,1.6c0,1,0.1,3-0.3,3C199.7,42.4,198.7,42.4,197.3,42.4z"/>
		<path class="st0" d="M162.5,42c-3.4-1.2-5-3.3-5.2-6.9c-0.1-0.9,0-1.8,0-2.7c0-1,0.4-2.4-1.5-2.2c-0.3,0-0.5-0.3-0.5-0.6
			c0-0.8,0-1.6,0-2.4c-0.1-1.3,0.9-1,1.6-1.1c0.6-0.1,0.4-0.6,0.4-1c0-1.3,0.1-2.7,0-4c-0.1-1,0.3-1.5,1.3-1.3c0.1,0,0.1,0,0.2,0
			c3,0,2.5-0.3,2.5,2.4c0,3.9,0,3.9,3.9,3.9c2.1,0,3,1.4,2.3,3.5c-0.2,0.6-0.7,0.5-1.1,0.5c-1.3,0-2.7,0-4,0c-0.8,0-1.1,0.3-1.1,1.1
			c0,0.4,0,0.9,0,1.3c0,4.7,0.3,5.1,5.1,5.3c0.9,0,1.3,0.3,1.1,1.2c-0.1,1.1,0.2,3-0.6,3.1C166.1,42.4,164.2,42.6,162.5,42z"/>
		<path class="st0" d="M102.7,42.4c0-4.9,0-9.8,0.1-14.6c0-0.5-0.3-1.2,0.4-1.5c0.7-0.2,1,0.4,1.3,0.9c0.4,0.7,0.8,0.9,1.6,0.3
			c2-1.4,4.3-1.3,6.6-1.2c0.6,0,0.7,0.2,0.8,0.8c0.4,2.9,0.2,3.2-2.7,3.3c-2.8,0-3.9,1.1-3.9,3.8c0,2.2,0,4.4,0,6.6
			c0,0.6,0.2,1.7-0.5,1.7C105.1,42.4,103.9,42.4,102.7,42.4z"/>
		<path class="st0" d="M149.5,42.4c-0.2,0-0.3-0.1-0.3-0.3c0-4.7,0.2-9.4,0-14.1c0-1.9,0.9-1.7,2.1-1.7c1.3,0,2.3-0.1,2.1,2
			c-0.3,4-0.3,8-0.1,12c0,0.7,0.3,2-0.2,2.1H149.5z"/>
		<path class="st0" d="M176.7,42.4c-2,0-3.9,0-5.9,0c-0.9,0-1.3-0.2-1.3-1.2c0.1-1.7,0-3.4,0-5c0.2-3.8,2.5-6.2,6.3-6.5
			c0.7-0.1,1.3,0,2,0c1.3,0,2.2-0.7,2.2-2.1c0-1.3-0.8-2.1-2.1-2.1c-2,0-4-0.1-6.1,0c-1.2,0.1-1.5-0.3-1.5-1.5c0-2.8,0-2.8,2.8-2.8
			c1.6,0,3.3,0,4.9,0c3.5,0.1,6.3,3,6.3,6.4c0,3.5-2.8,6.3-6.5,6.4c-0.7,0-1.5,0-2.2,0c-1.6,0.2-2.7,2.5-1.9,3.8
			c0.3,0.5,0.8,0.3,1.2,0.3c2.5,0,4.9,0.1,7.4,0c1.1,0,1.4,0.2,1.4,1.4c0,2.9,0,2.9-2.8,2.9C179.6,42.4,178.1,42.4,176.7,42.4z"/>
		<path class="st0" d="M151.3,19.3c1.3,0,2.7,1.2,2.8,2.6c0.1,1.4-1.1,2.7-2.6,2.8c-1.5,0.1-2.9-1.1-2.9-2.6
			C148.6,20.7,149.9,19.3,151.3,19.3z"/>
		<path class="st0" d="M146.2,40.7c0-6.3,0-12.7,0-19c0-1.4-0.4-1.6-1.7-1.6c-0.3,0-0.7,0-1,0c-1.1,0-1.5,0.3-1.4,1.4
			c0.1,1.8,0,3.6,0,5.7c-1-0.5-1.7-0.9-2.5-1.1c-5.5-1.4-10.6,4-9.5,9.8c0.7,3.4,2.5,5.3,5.2,6.3c1.7,0.6,5.4,0.4,7.2-1.1
			c0.9-0.8,1.6-0.5,2,0.3c0.2,0.5,0.6,1.1,1.2,0.9C146.5,41.9,146.1,41.2,146.2,40.7z M138.1,38.5c-2.2,0-4-2-4-4.3
			c0-2.4,1.6-4.2,3.9-4.3c2.2-0.1,4.1,1.9,4.1,4.2C142.1,36.5,140.3,38.5,138.1,38.5z"/>
		<path class="st0" d="M125.2,37.1c-0.9,1.1-2.1,1.5-3.8,1.2c2.3-2.7,4.3-5.3,6.5-7.8c1.1-1.2,0.9-1.9-0.2-2.8
			c-2.6-2.1-5.5-2.7-8.6-1.3c-3.2,1.4-4.7,4.1-4.8,7.5c-0.1,3.5,1.4,6.1,4.5,7.8c0.5,0.3,1.8,0.7,3.1,0.7c2.4,0,3.8-0.7,4.5-1.1
			c2.8-1.6,2.8-2.1,0.6-4.3C126.3,36.4,125.9,36.1,125.2,37.1z M123.3,30.1c-1.5,2-3,3.9-4.6,6.1C117.6,32.2,119.7,29.4,123.3,30.1z
			"/>
	</g>
	<g>
		<path class="st1" d="M42.2,45.1c-1.7,0-3.4,0-5.1,0c-0.7,0-0.9-0.6-1.1-1.1c-1.7-3.1-3.4-6.2-5.2-9.5c-1.3,1.8-2.7,3.3-3.7,5.1
			c-0.7,1.2-0.3,2.7-0.2,4.1c0,1.1-0.4,1.4-1.4,1.4c-3.9,0.1-3.9,0.1-3.9-3.8c0-7,0-14,0-21c0-1.1,0.3-1.5,1.5-1.5
			c3.9,0,3.9,0,3.9,3.9c0,2.9,0,5.8,0,8.7c0.1,0,0.2,0.1,0.3,0.1c1.7-2.2,3.3-4.4,5-6.7c1.1-1.5,2.3-3,3.4-4.6
			c0.7-1.1,1.5-1.5,2.8-1.4c1.3,0.1,2.5,0,4.2,0c-1,1.4-1.8,2.5-2.6,3.6c-1.6,2.1-3.1,4.3-4.8,6.3c-0.8,1-0.7,1.7-0.1,2.7
			c2.3,4.1,4.5,8.3,6.8,12.4C42,44.1,42.3,44.5,42.2,45.1z"/>
		<g>
			<path class="st2" d="M4,59.1V36.6c0-0.5-0.4-0.9-0.9-0.9H0.9c-0.5,0-0.9,0.4-0.9,0.9V60v3.1C0,63.6,0.4,64,0.9,64H4h23.4
				c0.5,0,0.9-0.4,0.9-0.9v-2.2c0-0.5-0.4-0.9-0.9-0.9H4.9C4.4,60,4,59.6,4,59.1z"/>
			<path class="st3" d="M60,59.1V36.6c0-0.5,0.4-0.9,0.9-0.9h2.2c0.5,0,0.9,0.4,0.9,0.9V60v3.1c0,0.5-0.4,0.9-0.9,0.9H60H36.6
				c-0.5,0-0.9-0.4-0.9-0.9v-2.2c0-0.5,0.4-0.9,0.9-0.9h22.5C59.6,60,60,59.6,60,59.1z"/>
			<path class="st4" d="M4,4.9v22.5c0,0.5-0.4,0.9-0.9,0.9H0.9c-0.5,0-0.9-0.4-0.9-0.9V4V0.9C0,0.4,0.4,0,0.9,0H4h23.4
				c0.5,0,0.9,0.4,0.9,0.9v2.2c0,0.5-0.4,0.9-0.9,0.9H4.9C4.4,4,4,4.4,4,4.9z"/>
			<path class="st5" d="M60,4.9v22.5c0,0.5,0.4,0.9,0.9,0.9h2.2c0.5,0,0.9-0.4,0.9-0.9V4V0.9C64,0.4,63.6,0,63.1,0L60,0L36.6,0
				c-0.5,0-0.9,0.4-0.9,0.9v2.2c0,0.5,0.4,0.9,0.9,0.9h22.5C59.6,4,60,4.4,60,4.9z"/>
		</g>
	</g>
</g>
</svg>
