<?xml version="1.0" encoding="utf-8"?>
<!-- Generator: Adobe Illustrator 21.1.0, SVG Export Plug-In . SVG Version: 6.00 Build 0)  -->
<svg version="1.1" id="Слой_1" xmlns="http://www.w3.org/2000/svg" xmlns:xlink="http://www.w3.org/1999/xlink" x="0px" y="0px"
	 viewBox="0 0 70 52" style="enable-background:new 0 0 70 52;" xml:space="preserve">
<style type="text/css">
	.st0{fill:#FFFFFF;stroke:#2C3E50;stroke-width:2;stroke-linejoin:round;stroke-miterlimit:10;}
	.st1{fill:#95A5A6;}
	.st2{fill:#FFFFFF;stroke:#2C3E50;stroke-width:2;stroke-linecap:round;stroke-linejoin:round;stroke-miterlimit:10;}
	.st3{fill:#16A085;}
	.st4{fill:none;stroke:#2C3E50;stroke-width:2;stroke-linecap:round;stroke-linejoin:round;stroke-miterlimit:10;}
</style>
<g>
	<path class="st0" d="M69,21v27c0,1.7-1.4,3-3,3H40c-1.7,0-3-1.4-3-3V4c0-1.7,1.4-3,3-3H66c1.7,0,3,1.4,3,3v13"/>
	<path class="st1" d="M64,44H42c-1.1,0-2-0.9-2-2V10c0-1.1,0.9-2,2-2h22c1.1,0,2,0.9,2,2v32C66,43.1,65.1,44,64,44z"/>
	<line class="st2" x1="50" y1="5" x2="56" y2="5"/>
	<path class="st2" d="M53,48L53,48c-0.5,0-1-0.5-1-1l0,0c0-0.5,0.5-1,1-1l0,0c0.5,0,1,0.5,1,1l0,0C54,47.5,53.5,48,53,48z"/>
	<path class="st0" d="M32,39h-6.5c-1.3,0-2.3-1.2-2-2.5l3.1-14.9c0.2-0.9,1-1.6,2-1.6h26.8c1.3,0,2.3,1.2,2,2.5l-3.1,14.9
		c-0.2,0.9-1,1.6-2,1.6H35"/>
	<path class="st3" d="M46.7,24.8c-0.2-0.3-0.6-0.3-0.9-0.1l-7,4.8l-4.1-3c-0.3-0.2-0.6-0.2-0.9,0c-0.2,0.2-0.3,0.6-0.1,0.9l4.1,7.1
		c0.1,0.2,0.3,0.3,0.5,0.4l0,0c0.2,0,0.4-0.1,0.6-0.2l7.8-8.9C46.9,25.5,46.9,25.1,46.7,24.8L46.7,24.8z M46.7,24.8"/>
	<g>
		<line class="st4" x1="12" y1="24" x2="21" y2="24"/>
		<line class="st4" x1="1" y1="29" x2="19" y2="29"/>
		<line class="st4" x1="6" y1="34" x2="15" y2="34"/>
	</g>
</g>
</svg>
