<?xml version="1.0" encoding="utf-8"?>
<!-- Generator: Adobe Illustrator 21.1.0, SVG Export Plug-In . SVG Version: 6.00 Build 0)  -->
<svg version="1.1" id="Слой_1" xmlns="http://www.w3.org/2000/svg" xmlns:xlink="http://www.w3.org/1999/xlink" x="0px" y="0px"
	 viewBox="0 0 119 113.4" style="enable-background:new 0 0 119 113.4;" xml:space="preserve">
<style type="text/css">
	.st0{fill:#FFFFFF;stroke:#2C3E50;stroke-width:2;stroke-linejoin:round;stroke-miterlimit:10;}
	.st1{fill:#16A085;stroke:#2C3E50;stroke-width:2;stroke-linecap:round;stroke-linejoin:round;stroke-miterlimit:10;}
	.st2{fill:#FFFFFF;stroke:#2C3E50;stroke-width:2;stroke-linecap:round;stroke-linejoin:round;stroke-miterlimit:10;}
	.st3{fill:#F39C12;stroke:#2C3E50;stroke-width:2;stroke-linejoin:round;stroke-miterlimit:10;}
	.st4{fill:#F39C12;stroke:#2C3E50;stroke-width:2;stroke-linecap:round;stroke-linejoin:round;stroke-miterlimit:10;}
	.st5{fill:none;stroke:#2C3E50;stroke-width:2;stroke-linecap:round;stroke-linejoin:round;stroke-miterlimit:10;}
	.st6{fill:#F39C12;stroke:#F39C12;stroke-width:2;stroke-linecap:round;stroke-linejoin:round;stroke-miterlimit:10;}
</style>
<g>
	<g>
		<path class="st0" d="M97,82H42.3c-1.7,0-3-1.4-3-3V4c0-1.7,1.4-3,3-3H97c1.7,0,3,1.4,3,3v75C100,80.7,98.6,82,97,82z"/>
		<path class="st1" d="M89.4,29v59.8c0,1.6-1.3,2.9-2.9,2.9H31.5c-1.6,0-2.9-1.3-2.9-2.9V13.6c0-1.6,1.3-2.9,2.9-2.9h54.9
			c1.6,0,2.9,1.3,2.9,2.9v7.7"/>
		<path class="st0" d="M75.7,104.2H21c-1.7,0-3-1.4-3-3v-75c0-1.7,1.4-3,3-3h54.7c1.7,0,3,1.4,3,3v75
			C78.8,102.9,77.4,104.2,75.7,104.2z"/>
	</g>
	<line class="st2" x1="18" y1="94.2" x2="1" y2="94.2"/>
	<line class="st2" x1="118" y1="94.2" x2="106.2" y2="94.2"/>
	<g>
		<line class="st2" x1="95.3" y1="86.4" x2="87.9" y2="86.4"/>
		<path class="st3" d="M93.5,50.9h-8.7c-1.5,0-2.8,1.3-2.8,2.8V55c0,0.8,0.6,1.4,1.4,1.4h1.8v13.5h7.1V56.4h2.6
			c0.8,0,1.4-0.6,1.4-1.4v-1.4C96.3,52.1,95.1,50.9,93.5,50.9z"/>
		<path class="st3" d="M80.6,76l3.5-3.5c1.8-1.8,1.8-4.6,0-6.4l-0.6-0.6c-0.7-0.7-1.8-0.7-2.4,0l0,0c-0.7,0.7-1.8,0.7-2.4,0
			l-7.2-7.2c-0.7-0.7-1.8-0.7-2.4,0L66.4,61c-0.7,0.7-0.7,1.8,0,2.4l7.2,7.2c0.7,0.7,0.7,1.8,0,2.4l0,0c-0.7,0.7-0.7,1.8,0,2.4
			l0.6,0.6C76,77.8,78.8,77.8,80.6,76z"/>
		<path class="st3" d="M94.6,76l-3.5-3.5c-1.8-1.8-1.8-4.6,0-6.4l0.6-0.6c0.7-0.7,1.8-0.7,2.4,0l0,0c0.7,0.7,1.8,0.7,2.4,0l7.2-7.2
			c0.7-0.7,1.8-0.7,2.4,0l2.5,2.5c0.7,0.7,0.7,1.8,0,2.4l-7.2,7.2c-0.7,0.7-0.7,1.8,0,2.4l0,0c0.7,0.7,0.7,1.8,0,2.4L101,76
			C99.2,77.8,96.4,77.8,94.6,76z"/>
		<path class="st4" d="M63.8,76.8c3.8-9.9,13.3-17,24.6-17c14.5,0,26.3,11.8,26.3,26.3s-11.8,26.3-26.3,26.3s-26.3-11.8-26.3-26.3
			c0-0.6,0-1.2,0.1-1.8"/>
		<path class="st2" d="M103.3,99.2c-3.6,4.1-9,6.7-14.9,6.7c-11,0-19.9-8.9-19.9-19.9s8.9-19.9,19.9-19.9s19.9,8.9,19.9,19.9
			c0,2.6-0.5,5.1-1.4,7.4"/>
		<g>
			<line class="st5" x1="99.3" y1="97" x2="97.7" y2="95.4"/>
			<line class="st5" x1="79.1" y1="76.8" x2="77.4" y2="75.1"/>
		</g>
		<g>
			<line class="st5" x1="89.2" y1="70.7" x2="89.2" y2="73.1"/>
			<line class="st5" x1="89.2" y1="99.3" x2="89.2" y2="101.7"/>
		</g>
		<g>
			<line class="st5" x1="99.3" y1="75.1" x2="97.7" y2="76.8"/>
			<line class="st5" x1="79.1" y1="95.4" x2="77.4" y2="97"/>
		</g>
		<g>
			<line class="st5" x1="104.3" y1="86.6" x2="101.9" y2="86.6"/>
			<line class="st5" x1="75.7" y1="86.6" x2="73.3" y2="86.6"/>
		</g>
		<path class="st6" d="M92.4,76"/>
		<path class="st6" d="M88.4,86.1"/>
		<line class="st6" x1="88.4" y1="86.1" x2="92.4" y2="87.3"/>
		<line class="st6" x1="88.4" y1="86.1" x2="92.4" y2="76"/>
		<g>
			<line class="st5" x1="60.5" y1="57.3" x2="59.1" y2="56.8"/>
			<line class="st5" x1="63.8" y1="54.9" x2="61.7" y2="51.7"/>
			<line class="st5" x1="67.4" y1="52.5" x2="67.2" y2="50.8"/>
		</g>
		<line class="st5" x1="92.3" y1="56.5" x2="90.2" y2="56.5"/>
	</g>
	<rect x="24.8" y="31.2" class="st2" width="14.5" height="14.5"/>
	<line class="st5" x1="47.3" y1="32.2" x2="67.8" y2="32.2"/>
	<g>
		<line class="st5" x1="24.8" y1="64.8" x2="51" y2="64.8"/>
		<line class="st5" x1="24.8" y1="72.6" x2="41.4" y2="72.6"/>
		<line class="st5" x1="24.8" y1="80.5" x2="48.4" y2="80.5"/>
	</g>
	<line class="st5" x1="47.1" y1="38.9" x2="60.9" y2="38.9"/>
</g>
</svg>
