<?xml version="1.0" encoding="utf-8"?>
<!-- Generator: Adobe Illustrator 21.1.0, SVG Export Plug-In . SVG Version: 6.00 Build 0)  -->
<svg version="1.1" id="Слой_1" xmlns="http://www.w3.org/2000/svg" xmlns:xlink="http://www.w3.org/1999/xlink" x="0px" y="0px"
	 viewBox="0 0 50.8 58.3" style="enable-background:new 0 0 50.8 58.3;" xml:space="preserve">
<style type="text/css">
	.st0{fill:#FFFFFF;stroke:#2C3E50;stroke-width:2;stroke-linejoin:round;stroke-miterlimit:10;}
	.st1{fill:none;stroke:#2C3E50;stroke-width:2;stroke-linecap:round;stroke-linejoin:round;stroke-miterlimit:10;}
	.st2{fill:#16A085;}
	.st3{fill:none;stroke:#FFFFFF;stroke-width:2;stroke-linecap:round;stroke-linejoin:round;stroke-miterlimit:10;}
	.st4{fill:#95A5A6;stroke:#2C3E50;stroke-width:2;stroke-linecap:round;stroke-linejoin:round;stroke-miterlimit:10;}
</style>
<g>
	<path class="st0" d="M1,15V4c0-1.7,1.4-3,3-3H39c1.7,0,3,1.4,3,3V47c0,1.7-1.4,3-3,3H4c-1.7,0-3-1.4-3-3V20"/>
	<line class="st1" x1="24" y1="9" x2="37" y2="9"/>
	<line class="st1" x1="24" y1="14" x2="31" y2="14"/>
	<g>
		<line class="st1" x1="9" y1="23" x2="37" y2="23"/>
		<line class="st1" x1="6" y1="28" x2="37" y2="28"/>
		<line class="st1" x1="6" y1="33" x2="30" y2="33"/>
	</g>
	<g>
		<path class="st2" d="M10.4,5.3C11,5.1,11.7,5,12.4,5c3.5,0,6.4,2.9,6.4,6.4s-2.9,6.4-6.4,6.4S6,15,6,11.4c0-2,0.9-3.8,2.3-4.9"/>
		<polyline class="st3" points="17.3,6.8 11.9,13.7 9.3,11.4 		"/>
	</g>
	<path class="st4" d="M25.3,47.6c2.6,2.7,6.7,5,13.2,5.3c0.1,0,0.2,0.1,0.2,0.2l0.2,3.5c0,0.6,0.8,0.9,1.2,0.5l9.4-9.3
		c0.3-0.3,0.3-0.8,0-1.1l-10.3-8.7c-0.5-0.4-1.2,0-1.2,0.6l0.2,4.4c0.1,1.9-4.1,1.7-5.2,1.7c-2.2-0.1-4.4-0.6-6.3-1.6
		c-2.4-1.3-4.5-3.4-5.6-5.9c-0.1-0.2-0.4-0.1-0.4,0.1c0.2,0.8,0.6,4,2.5,7.3"/>
</g>
</svg>
