<?xml version="1.0" encoding="utf-8"?>
<!-- Generator: Adobe Illustrator 21.1.0, SVG Export Plug-In . SVG Version: 6.00 Build 0)  -->
<svg version="1.1" id="Слой_1" xmlns="http://www.w3.org/2000/svg" xmlns:xlink="http://www.w3.org/1999/xlink" x="0px" y="0px"
	 viewBox="0 0 52 58" style="enable-background:new 0 0 52 58;" xml:space="preserve">
<style type="text/css">
	.st0{fill:#95A5A6;stroke:#2C3E50;stroke-width:2;stroke-linejoin:round;stroke-miterlimit:10;}
	.st1{fill:#BDC3C7;stroke:#2C3E50;stroke-width:2;stroke-linecap:round;stroke-linejoin:round;stroke-miterlimit:10;}
	.st2{fill:#FFFFFF;stroke:#2C3E50;stroke-width:2;stroke-linecap:round;stroke-linejoin:round;stroke-miterlimit:10;}
	.st3{fill:none;stroke:#2C3E50;stroke-width:2;stroke-linecap:round;stroke-linejoin:round;stroke-miterlimit:10;}
	.st4{fill:#F39C12;stroke:#F39C12;stroke-width:2;stroke-linecap:round;stroke-linejoin:round;stroke-miterlimit:10;}
</style>
<g>
	<g>
		<path class="st0" d="M31.4,1h-8.1c-1.4,0-2.6,1.1-2.6,2.5v1.2c0,0.7,0.6,1.3,1.3,1.3h1.6v12.3h6.6V6.1h2.4c0.7,0,1.3-0.6,1.3-1.3
			V3.5C34,2.1,32.8,1,31.4,1z"/>
		<path class="st0" d="M19.4,23.9l3.2-3.1c1.6-1.6,1.6-4.2,0-5.8l-0.5-0.5c-0.6-0.6-1.6-0.6-2.2,0l0,0c-0.6,0.6-1.6,0.6-2.2,0
			l-6.7-6.6c-0.6-0.6-1.6-0.6-2.2,0l-2.4,2.3c-0.6,0.6-0.6,1.6,0,2.2L13,19c0.6,0.6,0.6,1.6,0,2.2l0,0c-0.6,0.6-0.6,1.6,0,2.2
			l0.5,0.5C15.1,25.5,17.8,25.5,19.4,23.9z"/>
		<path class="st0" d="M32.4,23.9l-3.2-3.1c-1.6-1.6-1.6-4.2,0-5.8l0.5-0.5c0.6-0.6,1.6-0.6,2.2,0l0,0c0.6,0.6,1.6,0.6,2.2,0
			l6.7-6.6c0.6-0.6,1.6-0.6,2.2,0l2.4,2.3c0.6,0.6,0.6,1.6,0,2.2L38.8,19c-0.6,0.6-0.6,1.6,0,2.2l0,0c0.6,0.6,0.6,1.6,0,2.2
			l-0.5,0.5C36.7,25.5,34,25.5,32.4,23.9z"/>
		<path class="st1" d="M3.9,24.6c3.5-9,12.4-15.5,22.8-15.5C40.1,9.2,51,19.9,51,33.1S40.1,57,26.7,57S2.3,46.3,2.3,33.1
			c0-0.6,0-1.1,0.1-1.7"/>
		<path class="st2" d="M40.4,45c-3.4,3.7-8.3,6.1-13.8,6.1c-10.2,0-18.4-8.1-18.4-18.1S16.5,15,26.7,15S45,23.1,45,33.1
			c0,2.4-0.5,4.6-1.3,6.7"/>
		<g>
			<line class="st3" x1="36.8" y1="43" x2="35.3" y2="41.5"/>
			<line class="st3" x1="18.1" y1="24.6" x2="16.5" y2="23.1"/>
		</g>
		<g>
			<line class="st3" x1="27" y1="19" x2="27" y2="21"/>
			<line class="st3" x1="27" y1="45" x2="27" y2="47"/>
		</g>
		<g>
			<line class="st3" x1="36.8" y1="23.1" x2="35.3" y2="24.6"/>
			<line class="st3" x1="18.1" y1="41.5" x2="16.5" y2="43"/>
		</g>
		<g>
			<line class="st3" x1="41" y1="34" x2="39" y2="34"/>
			<line class="st3" x1="15" y1="34" x2="13" y2="34"/>
		</g>
		<path class="st4" d="M30.4,23.8"/>
		<path class="st4" d="M26.7,33.1"/>
		<line class="st4" x1="26.7" y1="33.1" x2="30.4" y2="34.2"/>
		<line class="st4" x1="26.7" y1="33.1" x2="30.4" y2="23.8"/>
	</g>
	<line class="st3" x1="2.3" y1="7.6" x2="1" y2="7.1"/>
	<line class="st3" x1="5.4" y1="5.4" x2="3.4" y2="2.5"/>
	<line class="st3" x1="8.6" y1="3.2" x2="8.5" y2="1.7"/>
</g>
</svg>
